<svg version="1.1" id="Calque_1" xmlns="http://www.w3.org/2000/svg" x="0" y="0" viewBox="0 0 368 138" xml:space="preserve"><style>.st0{fill:#00adee}.st1{fill:#fff}.st3{fill:#e9f5fc}.st4{fill:#e8f4fc}.st5{fill:#c8e4f7}.st6{fill:#d7ecf9}.st7{fill:#f2f9fd}.st9{fill:#dcedf9}.st11{fill:#e0f0fa}.st12{fill:#e2f1fa}.st13{fill:#cfe8f8}.st14{fill:#d8ecf9}.st15{fill:#d0e8f8}.st17{fill:#edf6fc}.st18{fill:#d6ebf9}.st20{fill:#c9e5f7}.st21{fill:#c1e2f6}.st22{fill:#cde7f8}.st24{fill:#dbedf9}.st25{fill:#d5ebf9}.st26{fill:#d4ebf9}.st27{fill:#e7f4fc}.st28{fill:#c4e3f7}.st33{fill:#e5f2fb}.st35{fill:#ebf5fc}.st37{fill:#c3e2f7}.st39{fill:#cee7f8}.st41{fill:#c0e1f6}.st42{fill:#f1f9fd}</style><path class="st0" d="M88.5 87.3c0 21.4-17.4 38.8-38.8 38.8S11 108.7 11 87.3s17.4-38.8 38.8-38.8 38.7 17.3 38.7 38.8"/><path class="st1" d="M73.5 91.7c-.9-2.1-1.8-4.2-3.1-6.2-1.4-2.3-2.9-4.6-5.5-5.9-.4-.2-.5-.5-.4-.9.4-1.4.7-2.8 1-4.2.4-2.7.6-5.4-.2-8.1-1-3.2-2.9-5.5-6.5-6h-2c-.1.3-.4.2-.6.3-.7.2-1.2.6-1.7 1.1-1.4 1.4-2 3.1-2.2 5-.2 1.7.1 3.5-1.3 4.8-.1.1-.1.2-.1.2-6 9.5-12 19.1-18 28.6-2.5 3.9-4.9 7.8-7.4 11.7v.6c.1.2.1.5.4.5.3 0 .5.1.8-.1.3-.2.6-.5.8-.8 2-2.5 3.9-5 5.9-7.4 5.3-6.7 10.7-13.4 16-20.1 2.2-2.7 4.3-5.4 6.5-8.1.2-.2.3-.5.6-.2 1.6 1.4 3.5 2.4 5.4 3.3.3.2.4.4.3.7l-.6 1.8c-1.1 3.2-2.6 6.3-3.7 9.6-1.2 3.8-1.7 7.6-.8 11.5.4 1.6.9 3 2.2 4.1.4.3.8.4 1.2 0 .3-.4.2-.8-.1-1.1-1-.8-1.4-2-1.7-3.2-.9-3.7-.4-7.3.8-10.8 1.2-3.8 3-7.3 4.2-11.1.1-.4.3-.4.6-.2 1.6.8 2.7 2.1 3.7 3.6 1.9 2.7 3.2 5.6 4.4 8.7.4 1.2.9 1.3 1.8.5v-.4c-.3-.6-.5-1.2-.7-1.8M54.3 74.8c-.9.8-1.8 1.6-2.9 2.4.5-1.7 1-3.1 1.7-4.7.4.7.8 1.4 1.2 2 0 .1.1.2 0 .3m1.4-1.4c-.2.2-.3 0-.4-.1-.6-.8-1-1.7-1.3-2.6 0-.1-.1-.1-.1-.2 0-.8 1.9-2.6 2.8-2.6.9 0 1.7.8 1.5 1.7-.3 1.6-1.5 2.7-2.5 3.8"/><path class="st0" d="M59.9 62.5c-2.1-1-4.2-.3-5.3 1.7-.6 1.1-.9 2.3-.9 3.6.6-.4 1-.8 1.6-1.2 1.4-.9 3-.8 4 .3.9 1 .8 2.2.5 3.4-.5 1.6-1.3 3-2.3 4.3-.3.4-.3.6.1.9 1.4 1.1 3 2 4.6 2.8.4.2.5.1.6-.3.3-1.1.6-2.2.8-3.3.4-2.3.6-4.6.2-6.9-.4-2.3-1.6-4.2-3.9-5.3"/><path class="st0" d="M56.8 67.9c-.8 0-2.7 1.8-2.8 2.6 0 .1.1.1.1.2.3 1 .7 1.8 1.3 2.6.1.1.2.3.4.1 1-1.1 2.2-2.2 2.5-3.8.1-.9-.6-1.7-1.5-1.7M53 72.5c-.7 1.6-1.1 3-1.7 4.7 1.2-.8 2-1.6 2.9-2.4.1-.1.1-.2 0-.3-.4-.5-.8-1.2-1.2-2"/><g><path class="st0" d="M177.7 87.8c0 21.4-17.4 38.8-38.8 38.8s-38.8-17.4-38.8-38.8S117.5 49 138.9 49c21.5 0 38.8 17.3 38.8 38.8"/><path class="st1" d="M129.9 107.8c0-.1 0-.1 0 0M150.7 113.3c0 .1 0 .1 0 0 0 .1 0 0 0 0M153.4 106.4c-.2-4.3-.8-8.5-2-12.7-.5-1.9-1.2-3.7-2.5-5.2-1.4-1.7-1.7-3.6-1.5-5.7.2-2 .7-3.8 1.5-5.7.7-1.7.4-3.1-.9-4.4-.5-.5-.6-1-.4-1.7l.6-2.7c.1-.5.3-.9.9-1.1.8-.2.9-.9.4-1.6-.3-.3-.5-.6-.5-1.1 0-.8-1-1.3-1.7-.9-.5.3-.9.3-1.4.1-1.6-.6-3.2-1.2-4.9-1.4-.2 0-1-.1-1.1-.3-.1-.3.7-.6.9-.7.1-.1.4-.3.5-.4.5-.5.7-.8.6-1.8-.1-.4-.1-1.2-1.3-1.7-.9-.3-1.7-.3-2.5-.1-.6.2-.7.4-1 .6-.4.4-.3.5-.3.8.1.3.2.4.5.4.4-.1.3-.5 1.1-.8.5-.1 1-.2 1.5 0 .3.1.8.3.8.8.1.5 0 .9-.3 1.3-.4.4-.9.6-1 .7-.6.3-.9 0-1.2.7-.1.4-.4.6-.8.6-1.9.2-3.6.9-5.3 1.5-.4.2-.8.2-1.2-.2-.4-.4-.9 0-1.3.1-.3.1-.6.4-.5.8 0 .4-.1.8-.4 1.1-.5.6-.3 1.3.4 1.6.5.2.7.5.8 1 .2.8.3 1.6.6 2.4.2.9.1 1.5-.6 2.2-1.1 1.2-1.4 2.5-.8 4 .2.5.4 1.1.6 1.6.5 1.8 1.1 3.6 1 5.5-.1 1.3-.2 2.7-1.1 3.8-.1.1-.2.3-.3.4 1.1.3 3 .6 4.1.7 1.7.2 3.5.3 5.2.3.6-.3 1.1-.1 1.7-.1h.4c.2-.2.5-.1.7-.1h.4c.3-.3.6-.1.9-.1.5.1.9-.2 1.4-.1l4.4-.8.1.2.1.2c-1.1.1-4.2.8-5.4.8-.1.1-.2.1-.3.1l-.4.1h-.3c-.5.3-1 .1-1.4.1-1.5.2-3 .1-4.6.1-2.1 0-4.8-.5-6.1-.8-.6-.1-.8-.2-1.2-.4-.7 1-1.3 2.1-1.8 3.2-1.7 4.2-2.3 8.7-2.7 13.1-.3 3.1-.2 6.2-.3 9.4l-.1 4.7h2.8v-.7c.3-1.7.2-3.5.6-5.2.1-1 .3-2 .4-3 0-.1 0-.3.1-.4v-.3c.1-.3-.1-.7.1-1v-.1c.1-.3-.1-.7.1-1 .1-.4-.1-.9.1-1.3.1-.5-.1-1 .1-1.4.1-.3-.1-.7.1-1-.1-.6.2-1.2.1-1.9 0-.2-.1-.5.1-.7v-.1-.6c.2-1.7.4-3.3.6-5 .1-.8.2-1.6.3-2.3h.2c.2.6 0 1.2.1 1.8 0 2.1.1 4.1-.1 6.2v4.5c0 2.1.1 4.1-.1 6.2v1.6c0 .9-.1 1.8 0 2.6.1 1-.1 2.3-.1 3.3h23.8v-12.6zM146.9 66c-.4 1.7-.7 3.4-1.1 5.1-.1.5-.2.7-.8.8-.8 0-1.5.3-2.2.7-.8.4-1.6.8-2.5 1-1.5.4-3 0-4.3-.7-1-.5-2-1.1-3.2-1.1-.2 0-.3-.1-.4-.4-.4-1.8-.7-3.7-1.2-5.5-.1-.4.1-.5.3-.7 2.4-1.1 4.9-2.1 7.6-2 2.7-.1 5.1.9 7.5 2 .3.3.4.5.3.8m-18.7 30.3c0 1-.3 1.9-.6 2.9 0 .1-.1.3-.1.4v2.8c0 .2.1.5-.1.7-.6 2.1-.5 4.3-1 6.4 0 1.3 0 2.6-.9 3.7-.1-.4-.2-.7-.2-1-.1-1.9-.1-3.9-.1-5.8 0-.8.3-1.5.7-2.2.2-1 .7-1.9.7-2.9-.1-2.4.5-4.8 1-7.2.1-.3.2-.5.3-.8.1-.2.1-.4.3-.4.3.1.2.3.2.5v.2c-.1 1 .2 1.8-.2 2.7m4.4-2.7v.2c0 1.8-.3 3.7-.7 5.4v.1c0 .3.1.6-.1.9v.1c0 1.1-.1 2.2-.3 3.3v.4c-.1.4.1.8-.1 1.1 0 .7 0 1.4-.1 2.1-.1 1.6-.2 3.2-.4 4.7.1.8-.1 1.6-.3 2.3-.4-.8.1-1.6 0-2.3v-6.1c0-.3-.1-.5.1-.7v-.1c-.1-1.5.2-3 .1-4.5 0-.1 0-.3.1-.4-.1-1.8.4-3.4.7-5.2 0-.7.3-1.4.4-2.1 0-.7.3-1.3.5-1.9.1 1 .3 1.9.1 2.7m2.2-1.9c0 .3.1.6-.1.9 0 1-.1 1.9-.4 2.9l-.1.9c-.1.2-.1.5-.2.7 0-.4-.2-.9.1-1.3.1-.4-.1-.8.1-1.1-.1-.9.1-1.7.4-2.6 0-.2.1-.5.1-.7 0-.2.1-.4.1-.6 0-.1.1-.4.2-.3.2.1.1.3 0 .4-.1.2.1.5-.2.8m2.7 2.3c0 .1 0 .3-.1.4v4.3c.2.5.2 1.1 0 1.6.1.5-.2 1 0 1.6 0 2.3-.2 4.5-.6 6.7.1.3-.1.6-.1.9 0 .3-.1.7-.1 1-.1.5-.2 1.1-.3 1.6-.1.3-.3.7-.4 1.1-.2-.3-.1-.6-.2-.8v-1.6-4.3c0-.2-.1-.5.1-.7 0-2.6.2-5.2.3-7.8 0-.7-.1-1.5.2-2.2v-1.4c0-.6.1-1.2.1-1.8 0-.6.2-1.2.2-1.8.3.3.2.6.3.9.1.9-.2 1.8.1 2.7l.1-1.6c0-.7.2-1.4.3-2 .1 1 .2 2.1.1 3.2m2.5 11.6c-.2 2.2-.1 4.4-.1 6.6 0 .2 0 .3-.1.5v1.7c0 1.3 0 2.6-.2 3.8-.1 0-.1-.1-.1-.2v-7c0-.2 0-.4.1-.5v-4.7-4.2-3.9c0-.9-.2-1.8-.1-2.7-.1-1.2-.3-2.3.3-3.4 0-.2 0-.4.3-.6v8.3c.2.2.1.5.1.7-.1 1.8 0 3.7-.2 5.6m.9-13.8v-1.5c0 .4.4.9 0 1.5m1.5 20.4c-.2 0-.3-.3-.3-.5-.1-.4 0-.9-.1-1.3-.1-.6-.1-1.3-.2-2v-.4c0-.5-.1-1-.1-1.4v-.6c-.2-.7-.2-1.3 0-2v-4.6c0-.3-.1-.5.1-.7v-.4c0-.9-.1-1.8.1-2.7v-1.4c0-.8.1-1.6-.2-2.4 0-.1-.1-.2.1-.3.2-.1.2.1.3.2.2.8.1 1.5.1 2.3v1.7c.3.7.1 1.5.1 2.3.3.6.1 1.2.1 1.9v.9c.2.2.1.5.1.7v10.2c0 .2.2.5-.1.5m4-22.4c.4 1.5.9 2.9.8 4.5-.5-1.4-.7-2.8-.9-4.2-.2-.2-.2-.6-.3-.9.3.2.3.4.4.6m-2.2 8.8c-.4-1.2-.1-2.4-.2-3.5v-1.6c-.3-1.2-.1-2.4-.1-3.6.2.3.3.6.2 1v.3c.3.4.1.9.1 1.3.3.4.1.8.1 1.1.2.1.1.3.1.5.1 1.5.4 3-.2 4.5m3.2 15.8c-.3 0-.4-.3-.5-.5v-.2c.2-.8-.2-1.6-.3-2.3 0-.3-.1-.5 0-.8.2-.7.1-1.3-.1-1.9-.2-1-.3-2-.3-3-.1-.8 0-1.6 0-2.4 0-1.4-.4-2.8-.3-4.2-.1-1-.2-2.1-.3-3.1v-.3c-.2-1.2-.1-2.4-.1-3.6 0-.1-.1-.2 0-.2-.1-.6-.3-1.3-.4-2 .4.1.2.5.5.6.2-.1-.1-.4.1-.6.3.8.2 1.7.2 2.6 0 1 .2 2 .3 3 .5 2.2 1.1 4.4 1.1 6.7.3.6.1 1.2.1 1.9.2.2.1.4.1.6v9.2c.1.1.2.4-.1.5m5.5 2.5c-.1.7.3 1.4-.3 2h-2.5c-.3-.8-.1-1.7-.1-2.6v-.1c-.2-.2-.1-.4-.1-.7v-3.4c0-2.5-.2-4.9-.3-7.4-.1-2.1-.3-4.3-.2-6.4 0-.2-.1-.5.1-.7v-.7-.7c-.2-.8-.1-1.5-.1-2.3v-.3c-.3-.4 0-.8-.2-1.3.5.3.5.6.6 1 0 .4.3.6.3 1 .5.2.5.7.6 1.1.4.9.6 1.7.6 2.7.1 1 .4 1.9.5 2.9.3.6.1 1.2.3 1.9.3.4.4.9.2 1.4 0 0 0 .1.1.1.2.2.2.5.2.8v.2c.1.2.1.4.1.6-.2.8 0 1.6 0 2.3 0 .7-.1 1.5.3 2.2.1.1.1.4.1.6 0 1.5.2 3 .2 4.5 0 .7-.5 1.3-.3 2-.3-.2-.4-.5-.1-.7M137.1 94.4"/><path class="st1" d="M128.2 94.1c0-.1-.2 0 0 0-.1 0-.1 0 0 0-.1.1-.1.2-.1.3 0-.1 0-.1.1-.3 0 .1 0 .1 0 0"/><path d="M151 99.8c0 .2.2.5.3.7.4 1 .3 1.6-.5 2.3-.2.2-.4.4-.7.2-.3-.2-.3-.5-.2-.8.3-.7-.1-1.4-.3-2 .3 1-.2 2 .2 3 .4 1.2.5 2.4 1 3.6.3.7.2 1.4.3 2.1.1 1.3.2 2.7-.2 4v.2c.4-.5.8-1.1.8-1.8 0-.4.3-.4.5-.2.3.3.4.7.3 1V115.5c0 .3-.1.6-.4.6-.3 0-.4-.3-.4-.5 0-.6-.2-1-.6-1.4-.3-.3-.3-.7-.3-1.1-.2.4-.2.8 0 1.1.4.6.6 1.2.8 1.8.1.3.3.8.8.5.2-.3.3-.6.3-.9v-3.7c0-.2 0-.5-.1-.7-.8-1.4-.4-2.9-.6-4.3-.1-.5.1-1.1.4-1.6l.1.1v-.2c0-.3.1-.6-.2-.8 0 0 0-.1-.1-.1 0 .1 0 .1-.1.2-.7-.6-.6-1.5-.5-2.3 0-.4.1-.7.1-1.1-.1-1-.5-1.9-.5-2.9-.1-.9-.3-1.8-.6-2.7.1 1.5.2 2.9.4 4.3m.9 5.6c0 .4-.1.8-.6.8s-.7-.3-.7-.8v-.1c-.1-.4-.2-.8.2-1.2.2-.2.4-.1.5 0 .4.4.6.8.6 1.3" fill="#ddeef9"/><path class="st3" d="M126.5 101.3c0 1-.5 1.9-.7 2.9 0 1.4-.2 2.7-.1 4.1 0 .5 0 1.1.7 1.2.6-2.1.4-4.3 1-6.4v-2.8c0-.2-.1-.5.1-.7 0-.1.1-.3.1-.4h-.3c-.2.6-.7 1.3-.8 2.1"/><path class="st4" d="M150.7 106.9c-.5-1.1-.5-2.4-1-3.6-.4-.9.1-2-.2-3-.3-.5-.1-1.1-.1-1.6v-1c-.2.2-.1.4-.1.7 0 2.1.2 4.3.2 6.4.1 2.5.4 4.9.3 7.4v3.4c0 .2-.1.5.1.7.1-1.3-.1-2.7.4-4 .8-1.8.4-3.7.4-5.4"/><path class="st4" d="M149.5 99c0-.1 0-.2-.1-.3 0 .1.1.2.1.3"/><path class="st5" d="M137.3 102.3v.5c0 .2.1.5-.1.6-.2.1-.5-.2-.5-.4-.2-.9-.4-1.8-.1-2.7 0-.1 0-.1.1-.2.1-1.6.4-3.2.3-4.8 0-.3.3-.5.3-.8-.2.1-.3 0-.3-.2v-1.5c-.5.5-.1 1.1-.4 1.6v1.4c.4 1.2.1 2.4-.1 3.6-.3 1.6 0 3.3-.1 4.9 0 .8-.3 1.6-.2 2.5 0 .2-.1.3-.3.3v2c.4 0 .8.1 1-.4.4-2.2.6-4.5.6-6.7-.3 0-.2.1-.2.3"/><path class="st6" d="M128 110c0-.1 0-.3.1-.4-.1.1-.1.3-.1.4M129.6 114.5c-.1-.5 0-1 .4-1.5v-1.6c-.5-.3-1.2-.4-.7-1.3 0-.6-.1-1.3.7-1.6v-.8c-.4.3-.8.5-1.3.2-.2-.1-.2.1-.3.2v.1c-.1.3.1.7-.1 1v.3c0 .3.1.5.3.7v-1.5c0-.1 0-.3.1-.4.2-.1.3.1.3.2.3.3.2 1.6-.1 1.9-.1.1-.3 0-.4 0 0 .3 0 .6.1.9.4 0 .7.5 1.1.6.2 0 .1.2.1.4-.5 1.1-.3 2.2-.3 3.4v.6c0 .5-.8 1.6-.9 1.5-.3-.3-.5-.8-.6-1.3-.1-.8 0-1.7-.2-2.5-.1-.5.4-.8.4-1.3l-.4.4c-.3 1.7-.3 3.5-.6 5.2v.7h2c-.2-1.6.8-3 .4-4.5"/><path class="st7" d="M147.6 104.6c0-.2.1-.4-.1-.6 0 .5.1 1.1-.2 1.6-.1.2-.1.6-.4.6-.3-.1-.5-.4-.5-.7v-1.6c0-.2.1-.5-.1-.7v2.4c.1 1 .1 2.1.3 3 .2.7.3 1.3.1 1.9-.1.2 0 .5 0 .8.1.8.5 1.5.3 2.3v.2c.1.2.3.5.5.5.3 0 .1-.4.1-.6v-9.1"/><path d="M153 115.7c.1-1.5-.2-3-.2-4.5 0-.2 0-.4-.1-.6-.4-.7-.3-1.4-.3-2.2 0-.8-.2-1.6 0-2.3 0-.2 0-.4-.1-.6l-.1-.1c-.2.5-.5 1.1-.4 1.6.2 1.4-.2 3 .6 4.3.1.2.1.5.1.7v3.7c0 .4-.1.7-.3.9-.1.4-.4.6-.6.3-.4-.7-1.1-.7-1.7-.7.1.9-.2 1.7.1 2.6h.6c0-.4.1-.8.1-1.3 0-.2 0-.4.3-.4.2-.1.4.1.5.2.2.2.1.4.2.6.1.3.1.7.4.7.3 0 .5-.4.5-.7v-.2c-.1-.7.4-1.3.4-2" fill="#e7f3fb"/><path class="st9" d="M146.5 102.2c.1.3.3.7.8.6v-.6c0-2.3-.6-4.5-1.1-6.7v.1c0 .3 0 .6-.3.8-.2-.1 0-.4-.2-.5.1 1 .2 2.1.3 3.1l.6 3c-.1 0-.1.1-.1.2"/><path d="M125.7 108.2c-.1-1.4.1-2.7.1-4.1-.4.7-.7 1.4-.7 2.2 0 1.9.1 3.9.1 5.8 0 .3.1.6.2 1 .9-1.2.9-2.5.9-3.7-.6-.1-.6-.7-.6-1.2" fill="#eef8fd"/><path class="st11" d="M151.7 117.1c.2.3.5.1.6-.3-.5.3-.7-.2-.8-.5-.2-.6-.4-1.2-.8-1.8-.2-.3-.2-.7 0-1.1v-.2c.4-1.3.3-2.7.2-4 0-.7 0-1.5-.3-2.1-.1 1.8.3 3.6-.3 5.3-.5 1.4-.4 2.7-.4 4v.1c.7-.1 1.4-.2 1.8.6"/><path class="st12" d="M130.1 100.7c.2-2 .1-4.1.1-6.2-.5-.1-.4.4-.6.6-.2 1.7-.4 3.3-.6 5 .8-.4.7.5 1.1.6"/><path class="st13" d="M131.6 98.8c.1-1 .2-1.9.4-2.9 0-.4-.1-.7-.4-.8-.3 1.7-.8 3.4-.7 5.2v1.4c.7-.2.2-1.1.9-1.2v-.1c0-.3-.1-.6.1-.9v-.1c-.4-.2-.3-.4-.3-.6"/><path class="st14" d="M143.1 89.3c.1 0 .2 0 .3-.1l-.3.1z"/><path class="st14" d="M136.4 89.7c1.5 0 3 .1 4.6-.1.5-.3 1-.1 1.4-.1h.3c.2-.2.5-.1.7-.1.1-.3.7.1.7-.4-.5 0-.9.2-1.4.1-.3.3-.6.1-.9.1h-.4c-.2.2-.5.1-.7.1h-.4c-.6.3-1.1.1-1.7.1-1.7 0-3.5-.1-5.2-.3-1.1-.1-3-.5-4.1-.7 0 .1-.1.1-.1.2.3.2.6.3 1.2.4 1.2.2 3.9.7 6 .7"/><path class="st3" d="M146.3 103.8v1.6c0 .4.2.7.5.7.3.1.3-.3.4-.6.2-.5.2-1.1.2-1.6-.1-.6.2-1.3-.1-1.9v.6c0 .3.1.6-.3.7-.4 0-.4-.3-.5-.6-.1-.2 0-.5 0-.8l-.6-3c-.1 1.4.3 2.8.3 4.2.1.2.1.5.1.7"/><path class="st15" d="M142.3 107.3c.1-.3.1-.6.3-.9v-5c0-.3.1-.5-.1-.7-.7-.5-.8-1.2-.7-2-.2.2-.1.5-.1.7v4.6c.2-.4.2-.8.3-1.2 0-.2.2-.4.4-.4.3 0 .2.3.2.5v2.6c0 .4-.1.8-.3 1.2-.2.4-.4.2-.5-.1 0 .5.1 1 .1 1.4.2 0 .3-.4.4-.7"/><path d="M150 99.6c0 .2.1.5.4.4.2 0 .2-.3.2-.5-.1-1.7-.3-3.3-.7-4.9-.1-.3.1-.8-.6-.7 0 .8-.1 1.5.1 2.3.5.7.2 1.5.4 2.2.2.4.2.8.2 1.2" fill="#b8def5"/><path class="st17" d="M128.4 93.7c-.2-.1-.4-.1-.4.2-.1.3-.2.3-.4.3-.5 2.4-1.1 4.7-1 7.2.1-.8.5-1.4.9-2.1 0-1.6.1-3.2.7-4.7v-.3c-.1 0 .1-.1.1 0v.1c0-.1.1-.1.1-.2v2.2c.2-1-.1-1.8 0-2.7"/><path class="st13" d="M135.8 107c.2 0 .3-.1.3-.3-.1-.8.1-1.7.2-2.5.1-1.6-.2-3.2.1-4.9.2-1.2.4-2.4.1-3.6-.3.7-.2 1.5-.2 2.2-.2 2.6-.4 5.2-.3 7.8-.2.4-.2.9-.2 1.3"/><path class="st18" d="M132 93c-.2.7-.4 1.4-.4 2.1.3.2.5.4.4.8-.1 1-.2 1.9-.4 2.9 0 .2-.1.4.2.5.4-1.8.7-3.6.7-5.4.1-.5-.2-.7-.5-.9"/><path d="M142.1 106.6c.2-.4.3-.7.3-1.2v-2.6c0-.2.1-.4-.2-.5-.2 0-.4.2-.4.4-.1.4-.1.8-.3 1.2v2.6c.2.4.4.6.6.1" fill="#c9e6f7"/><path class="st20" d="M150.3 101c.1.2.3.5.5.3.2-.1.3-.3.2-.6-.5-1.4-.3-2.9-.6-4.4-.1-.7-.3-1.3-.4-2 .1-.4-.3-.6-.3-1-.3-.2-.4 0-.4.3v.3c.7-.2.5.4.6.7.4 1.6.6 3.2.7 4.9 0 .2 0 .5-.2.5s-.3-.2-.4-.4c0-.4 0-.8-.2-1.1-.3-.7.1-1.5-.4-2.2v.7c.3.6.1 1.3.2 1.9.2.8.5 1.4.7 2.1"/><path class="st21" d="M137.3 92.7l-.1 1.6v.1c0 .3-.3.5-.3.8.1 1.6-.1 3.2-.3 4.8v.3c.3-.8.4-1.7.9-2.4v-3.4c-.2-.7.1-1.3-.2-1.8M136.5 100c0 .1-.1.1-.1.2.1-.1.1-.1.1-.2"/><path class="st13" d="M149.5 99c.2.6.3 1.3.5 1.9 0 .1 0 .2.1.3.2.4.3 1 .8.9.6-.1.4-.7.4-1.1v-.4c-.1-.2-.2-.5-.3-.7-.2-1.4-.3-2.9-.4-4.3-.1-.4-.1-.9-.6-1.1.1.7.3 1.3.4 2 .3 1.4.1 2.9.6 4.4.1.3.1.5-.2.6-.3.1-.5-.1-.5-.3-.2-.7-.5-1.4-.6-2.1-.1-.6.1-1.3-.2-1.9V99"/><path class="st18" d="M130.8 101.6v-1.4c-.1.1-.1.2-.1.4.1 1.5-.2 3-.1 4.5.3-.2.1-.6.2-.9.2-.3.3-.5.6-.6.2-1.1.3-2.2.3-3.3-.6.3-.2 1.1-.9 1.3"/><path class="st22" d="M128.2 94c0 .1-.1.1-.1.2s-.1.1-.1.2c-.6 1.5-.7 3.1-.7 4.7h.3c.3-.9.6-1.9.6-2.9v-1.1V94"/><path d="M136.5 101.5c0 .5.2.7.7.7 0-.2 0-.3.1-.4-.2-.5.1-1 0-1.6v-1.6-.9c-.5.7-.6 1.6-.9 2.4.1.6.1 1 .1 1.4" fill="#bfe1f6"/><path class="st24" d="M128.6 108c.5.3.9.1 1.3-.2v-2.1c-.2.2-.5.3-.8.1-.5-.3-.5-.6-.5-1.1v-.1c-.3.5-.1 1-.1 1.4.6.4 1 1.1.7 1.5-.1.2-.2.4-.4.4s-.2-.3-.3-.4c0-.1-.1-.2-.1-.2-.3.3-.1.7-.1 1 .1-.2.1-.4.3-.3M130.7 107.9c-.2 0-.2-.3-.2-.4v-2.2c-.2.2-.1.5-.1.7v6.1h.3c.2-1.6.4-3.1.4-4.7 0 .1-.1.1-.1.2-.1.2-.1.4-.3.3"/><path class="st7" d="M142.6 107.9c-.2.2-.2.5-.4.6-.2.2-.3 0-.4-.1.1.7.1 1.3.2 2 .1.4 0 .9.1 1.3 0 .2.1.5.3.5.3 0 .2-.3.2-.5v-3.8"/><path class="st22" d="M140 99.1v1.8c0 .3 0 .6-.4.6v4.2c.1 0 .3-.1.4-.1.2-1.9.1-3.8.1-5.7 0-.3.1-.6-.1-.8"/><path class="st25" d="M130.7 104.3c-.2.3.1.6-.2.9V107.5c0 .2-.1.4.2.4.2 0 .2-.2.3-.3 0-.1.1-.1.1-.2.1-.7.2-1.4.1-2.1.1-.4-.1-.8.1-1.1v-.4c-.3-.1-.4.2-.6.5"/><path class="st26" d="M130 104c-.1-.9 0-1.8-.3-2.6-.1-.3-.3-.5-.6-.7v.1c0 .2.1.5-.1.7 0 .6-.2 1.2-.2 1.9.5 0 .9.1 1.2.6"/><path class="st27" d="M130 115.7c-.1-.9 0-1.8 0-2.6-.4.4-.5 1-.4 1.5.5 1.6-.6 2.9-.5 4.4h.7c.1-1 .3-2.4.2-3.3"/><path class="st6" d="M139.5 110.4c0 .2.1.5.1.7v1.4c.1-.1.1-.3.1-.5 0-2.2 0-4.4.1-6.6-.1 0-.3.1-.4.1.1 1.8.1 3.4.1 4.9"/><path class="st28" d="M146.1 95.6v-.1c0-1-.3-2-.3-3-.2-.1-.1-.3-.1-.5 0-.1 0-.3-.1-.2-.1 0-.1.2-.1.3 0 1.2 0 2.4.1 3.6.1 0 .3-.1.5-.1M145.4 92v-.2.2"/><path d="M144.6 94.1c0-.2 0-.3-.1-.5v1.1c0 .4-.2.3-.4.3.1 1.1-.2 2.3.2 3.5.5-1.4.2-2.9.3-4.4" fill="#dfeffa"/><path d="M130 105.6V108.5c.2.7-.2 1.2-.7 1.6-.5.8.2 1 .7 1.3.2-2 .1-4.1.1-6.2-.1.2-.1.3-.1.4" fill="#deeffa"/><path d="M139.5 95.6c0 .2 0 .4.3.5v-3.8c0-.2.1-.5-.1-.7-.5 1.1-.4 2.3-.3 3.4.2.2.1.4.1.6" fill="#b3dcf4"/><path class="st20" d="M142.4 100.7v-.9c-.3-.6-.1-1.2-.1-1.9-.1-.8.1-1.5-.1-2.3v1.7c0 .4-.1.7-.4.9v.4c-.2.9-.1 1.6.6 2.1"/><path class="st24" d="M139.7 111.2c0-.2-.1-.5-.1-.7-.2.1-.1.3-.1.5v7c0 .1 0 .2.1.2.2-1.3.2-2.5.2-3.8-.3-1.1-.3-2.2-.1-3.2"/><path class="st13" d="M129.1 104.7c.7.4.9.3.9-.5v-.1c-.3-.5-.6-.6-1.2-.6-.3.3-.1.7-.1 1v.1c.1 0 .3 0 .4.1"/><path d="M135.8 109v-2-1.3c-.2.2-.1.5-.1.7v4.3c.4.2.6-.2.9-.3 0-.3.1-.7.1-1-.9.5-.9.5-.9-.4" fill="#d3eaf9"/><path class="st9" d="M129.7 101.4c.3.9.1 1.7.3 2.6v.1h.1v-3.4c-.4-.1-.3-1-1-.6v.6c.3.2.5.4.6.7"/><path class="st26" d="M146.3 90.1c.2 1.4.5 2.8.9 4.2.1-1.5-.4-3-.8-4.4-.1 0-.1.1-.1.2"/><path class="st11" d="M143.4 89.3c-.2 0-.5-.1-.7.1l.4-.1h.3c1.2 0 4.2-.7 5.4-.8l-.2-.2-.1-.2c-1 .2-3.3.6-4.4.8 0 .4-.5.1-.7.4"/><path class="st33" d="M128.5 107.4c.1.2.1.4.3.4.2 0 .3-.2.4-.4.2-.5-.1-1.2-.7-1.5-.3.4-.1.9-.1 1.3 0 0 .1.1.1.2"/><path class="st25" d="M129.1 104.7c-.1-.1-.3-.1-.4-.1-.1.5 0 .8.5 1.1.3.2.6.1.8-.1 0-.1 0-.2.1-.3v-1.1h-.1c-.1.8-.2.8-.9.5"/><path d="M134.5 92c-.3.8-.5 1.7-.4 2.6.1.3-.1.6.1.9.3-.9.4-1.9.4-2.9.1-.2.1-.5-.1-.6" fill="#c2e2f6"/><path class="st24" d="M128.1 112.6c.1-.4 0-.8.4-1v-.3c-.1-.3-.1-.6-.1-.9v-.1c-.2-.2-.3-.4-.3-.7 0 .1 0 .3-.1.4-.1 1-.3 2-.4 3 .2-.1.3-.2.5-.4"/><path class="st35" d="M136.8 94.2c0 .2.1.3.3.2v-.1c-.3-.9-.1-1.8-.1-2.7 0-.3.1-.6-.3-.9 0 .6-.1 1.2-.2 1.8-.1.6-.1 1.2-.1 1.8.3-.5-.1-1.1.4-1.6v1.5"/><path d="M132 93c.3.2.7.4.6.9v-.2c.2-.9.1-1.7-.1-2.6-.3.6-.5 1.2-.5 1.9" fill="#e6f2fb"/><path class="st27" d="M145.6 91.7c.2-.1.1.1.1.2 0 .2 0 .4.1.5 0-.9.1-1.7-.2-2.6-.2.1 0 .4-.1.6-.3-.1-.1-.5-.5-.6.1.7.3 1.3.4 2v.2c.1-.1.1-.3.2-.3"/><path class="st37" d="M140 101v-1.7c-.4 0-.3-.3-.3-.5 0-.3.1-.7-.1-1v3.9c.3-.2.4-.4.4-.7"/><path class="st27" d="M152.1 104.6c0-.1 0-.1.1-.2.2-.5.1-.9-.2-1.4-.1-.6 0-1.3-.3-1.9 0 .4 0 .7-.1 1.1-.1.9-.2 1.7.5 2.4"/><path class="st4" d="M135.7 110.7v1.6c.2 0 .4-.2.6-.3.1-.5.2-1 .3-1.6-.3.2-.5.5-.9.3"/><path d="M144.3 92.5c-.1-.4.1-.9-.1-1.3v1c-.1-.4-.3-.8 0-1.2 0-.4-.1-.7-.2-1 0 1.2-.2 2.4.1 3.6.4-.3.1-.7.2-1.1" fill="#cae6f8"/><path class="st39" d="M139.8 92.3v5.4h.1v-6.8c-.3.2-.3.4-.3.6.3.3.2.5.2.8"/><path d="M139.7 98.7c0 .2-.1.5.3.5v-.1-.6c-.3-.3-.1-.6-.1-.9V96c-.3 0-.3-.3-.3-.5s.1-.5-.1-.7c-.1.9.1 1.8.1 2.7.2.5 0 .9.1 1.2" fill="#bce0f6"/><path class="st41" d="M142.1 97.4v-1.7c-.1 0-.2-.1-.3-.1-.3.9-.1 1.8-.1 2.7.3-.2.4-.6.4-.9"/><path class="st27" d="M137.3 92.7c.3.6.1 1.1.1 1.7 0-.1.1-.3.1-.4.2-1.1 0-2.2.1-3.4-.2.7-.4 1.4-.3 2.1"/><path class="st35" d="M142 91.7c0-.2-.1-.3-.3-.2-.1.1-.1.2-.1.3.3.8.2 1.6.2 2.4.1 0 .2-.1.3-.1 0-.9.1-1.7-.1-2.4"/><path class="st15" d="M144.4 94.8v-1.1c-.1-.4.1-.8-.1-1.1-.1.3.2.8-.3 1v1.6c.2 0 .5 0 .4-.4"/><path class="st42" d="M130.2 94.6c0-.6.1-1.2-.1-1.8h-.2c-.1.8-.2 1.6-.3 2.3.3-.1.1-.7.6-.5"/><path class="st33" d="M142.1 108.5c.2-.2.2-.5.4-.6v-1.4c-.2.2-.2.6-.3.9-.1.3-.1.7-.6.7v.4c.2 0 .3.2.5 0"/><path d="M130.4 114.5c.2-.8.3-1.5.3-2.3h-.3c.1.7-.4 1.5 0 2.3" fill="#e6f3fc"/><path class="st22" d="M135.8 109c0 .8 0 .8.9.4 0-.3.2-.6.1-.9-.1.6-.6.5-1 .5"/><path d="M128 93.9c.1-.2.2-.3.4-.2v-.2c0-.2.1-.5-.2-.5-.2 0-.3.2-.3.4-.1.3-.2.5-.3.8.1-.1.3-.1.4-.3" fill="#f5fbfd"/><path class="st17" d="M127.4 100.2v2.8c.2-.2.1-.4.1-.7v-2.8c-.2.2-.1.5-.1.7"/><path class="st22" d="M139.7 111.2c-.2 1-.2 2.1 0 3.1v-1.7-1.4"/><path d="M142.1 95.7V94c-.1 0-.2.1-.3.1v1.4c.1.1.2.1.3.2z" fill="#cce7f8"/><path class="st39" d="M149.7 93.4c-.1-.3-.2-.7-.6-1 .2.5-.1.9.2 1.3 0-.3.1-.5.4-.3"/><path d="M145.8 96.3c.4-.1.3-.5.3-.8-.2 0-.4.1-.6 0v.3c.3.1.1.4.3.5" fill="#d1e8f8"/><path class="st42" d="M135.8 113.1c.2-.4.3-.8.4-1.1-.2.1-.3.3-.6.3.1.3 0 .5.2.8"/><path d="M140.9 91.8c.4-.5 0-1 0-1.5v1.5z" fill="#cae5f7"/><path class="st20" d="M134.1 94.5c-.3.4-.1.8-.1 1.1 0 .2-.1.4.1.6l.1-.9c-.2-.1 0-.5-.1-.8"/><path class="st15" d="M141.5 104c-.2.7-.2 1.3 0 2v-2M142.4 99.8c-.1-.6.2-1.3-.1-1.9 0 .7-.2 1.3.1 1.9"/><path d="M134.7 91.3c0 .2-.1.5-.1.7.2.2.1.4.1.6.2-.3.1-.6.1-.9 0-.2.1-.3-.1-.4" fill="#c7e4f7"/><path class="st14" d="M134 95.7c-.3.4-.1.9-.1 1.3.1-.2.1-.5.2-.7-.2-.2-.1-.4-.1-.6"/><path class="st11" d="M140.3 89.3c-.6.1-1.2-.2-1.7.1.5-.1 1.1.2 1.7-.1"/><path class="st21" d="M137.4 100.3c.2-.5.2-1.1 0-1.6v1.6"/><path d="M144.1 92.2v-1-.3c-.2.5-.1.9 0 1.3" fill="#b7def5"/><path class="st11" d="M141 89.5c.5-.1 1 .1 1.4-.1-.5.1-1-.2-1.4.1"/><path d="M134.8 90.7c0 .2-.1.4-.1.6.2.1.1.3.1.4.2-.3.1-.6.1-.9 0 0 0-.1-.1-.1" fill="#daecf9"/><path class="st11" d="M146.3 90.1c0-.1 0-.2.1-.3-.1-.2-.1-.5-.5-.6.2.4.2.7.4.9z"/><path class="st18" d="M131.2 105.3c.3-.4.1-.8.1-1.1-.2.3 0 .7-.1 1.1"/><path class="st24" d="M128.2 108.3c-.3.3-.1.7-.1 1 .3-.3.1-.7.1-1"/><path class="st37" d="M140 98.6v-.9h-.1c0 .3-.2.6.1.9"/><path class="st18" d="M131.7 100.3c.3-.3.1-.6.1-.9-.2.3-.1.6-.1.9"/><path class="st42" d="M135 90.4c-.1-.1-.2.2-.2.3l.1.1c.2-.1.3-.3.1-.4"/><path class="st11" d="M142.7 89c-.3 0-.6-.1-.9.1.3 0 .6.1.9-.1"/><path class="st9" d="M129.1 100.8c-.2.2-.1.5-.1.7.2-.1.1-.4.1-.7"/><path class="st11" d="M141.4 89.1c-.2 0-.5-.1-.7.1.2 0 .5.1.7-.1"/><path d="M152.2 118.6c-.3 0-.3-.4-.4-.7-.1-.2 0-.4-.2-.6-.1-.1-.3-.2-.5-.2-.2.1-.3.2-.3.4 0 .4-.1.8-.1 1.3h1.9c.5-.6.2-1.3.3-2-.2.3-.1.5-.1.8v.2c-.1.5-.3.8-.6.8" fill="#ecf6fc"/><path class="st24" d="M151 114.5c.4.4.6.8.6 1.4 0 .3.1.6.4.5.3 0 .4-.3.4-.6V114h-.1c-.2.2.1.8-.5.8-.4 0-.9-.9-.9-1.3.1-.5.4-.8.9-.9.4-.1.3.5.5.6v-.9c0-.4 0-.8-.3-1-.2-.2-.5-.3-.5.2 0 .7-.4 1.2-.8 1.8v.1c0 .4 0 .8.3 1.1"/><path class="st25" d="M150.7 104.2c-.4.3-.3.8-.2 1.2v.1c0 .4.3.8.7.8.4 0 .6-.4.6-.8 0-.5-.2-.9-.6-1.1-.1-.2-.3-.3-.5-.2"/><path class="st18" d="M151.9 112.7c-.5.1-.8.4-.9.9-.1.4.5 1.2.9 1.3.6 0 .3-.5.5-.8h.1v-.7c-.3-.3-.2-.8-.6-.7"/><path class="st25" d="M149.9 102.3c-.1.2-.1.6.2.8.3.2.5 0 .7-.2.8-.7.9-1.2.5-2.3v.4c0 .4.2 1-.4 1.1-.5.1-.7-.5-.8-.9 0-.1 0-.2-.1-.3-.2-.6-.3-1.3-.5-1.9 0-.1 0-.2-.1-.3.1.5-.2 1.1.1 1.6.3.6.7 1.3.4 2"/><path class="st37" d="M136.6 102.9c0 .2.3.5.5.4.3-.1.1-.4.1-.6v-.5c-.5 0-.7-.3-.7-.7v-1.3-.3c0 .1 0 .1-.1.2-.2 1 .1 1.9.2 2.8"/><path class="st15" d="M128.1 112.6c0 .5-.5.9-.4 1.3.2.8.1 1.7.2 2.5.1.5.3 1 .6 1.3.1.1.9-1 .9-1.5v-.6c0-1.1-.2-2.3.3-3.4.1-.1.1-.3-.1-.4-.5-.1-.7-.5-1.1-.6v.3c0 .5 0 .9-.4 1.1m.7 0c.3.1.2.4.1.6 0 .7.4 1.4.3 2 0 .5.1.9-.2 1.3-.3.3-.5.4-.8 0-.1-.2-.3-.4-.3-.6v-2.1c0-.3.1-.6.3-.8.2-.1.3-.5.6-.4"/><path class="st39" d="M128.4 110.4c.1 0 .2.2.4 0 .3-.3.4-1.6.1-1.9-.1-.1-.2-.2-.3-.2-.2.1-.1.2-.1.4v1.5c-.1.1-.1.2-.1.2"/><path class="st24" d="M130 108.6c-.8.3-.7.9-.7 1.6.5-.4.8-.9.7-1.6"/><path class="st12" d="M146.5 102.2c0-.1 0-.1-.1-.2v.8c.1.3.1.6.5.6s.3-.4.3-.7c-.4.1-.6-.2-.7-.5"/><path class="st6" d="M128.5 111.6c-.4.2-.4.6-.4 1 .4-.2.4-.6.4-1"/><path class="st5" d="M128 113.9v2.1c0 .3.2.4.3.6.2.4.5.3.8 0 .3-.4.2-.8.2-1.3.1-.7-.3-1.3-.3-2 0-.2.1-.5-.1-.6-.3-.1-.4.3-.5.5-.4.1-.4.4-.4.7m1.1 1.1v.4c0 .4 0 .8-.4.9-.4 0-.6-.4-.6-.9v-.2-.1c0-.3 0-.9.3-.9.4-.1.6.4.7.8"/><path class="st41" d="M128.1 115V115.3c0 .5.2.9.6.9.4 0 .4-.5.4-.9v-.4c-.1-.4-.3-.9-.7-.9-.3.1-.3.7-.3 1"/></g><g><path class="st0" d="M266.2 79.4c5.4 27.9-19 51.9-47 45.6-14.3-3.2-25.6-14.5-28.8-28.8-6.3-28 17.7-52.4 45.6-47 15.2 3 27.2 15 30.2 30.2"/><path class="st1" d="M251.7 104c-4-.7-7.9-1.5-11.9-2.2-10.5-1.9-20.9-3.8-31.4-5.7l-8.1-1.5c-.3-.1-.7-.2-.9.1-.2.3-.1.7 0 1 .2.3.4.4.7.5 1.4.3 2.8.5 4.1.8 11.3 2 22.6 4.1 33.9 6.1 2.8.5 5.5 1 8.3 1.5l3.9.7c.9.2 1.1.1 1.4.1.4-.1.5-.7.5-1.2 0-.1-.3-.1-.5-.2M255.3 76.1c-4.1-.7-8.1-1.4-12.2-2.1-3.5-.6-7-1.3-10.5-1.9-.4-.1-.6-.2-.7-.6 0-1.1-.7-1.6-1.7-1.8-.9-.1-1.9-.1-2.2 0-.5.2-.7.7-.7 1.2 0 .4-.3.7-.7.7-1 0-2.1.1-3.1.5-1.8.7-2.7 2-2.8 4 0 1.8.6 3.5 1.2 5.1.3.8.3.8-.5.8-3.3.1-6.5.5-9.6 1.5-4.5 1.5-8.2 4-10.9 7.8-.7 1-.7 1.1.5 1.3 4.1.7 8.1 1.5 12.2 2.2 5.3 1 10.6 1.9 15.9 2.9l18 3.3c1.5.3 3 .5 4.4.8.6.1.9-.1 1-.7l.3-1.8c.8-4.5 1.6-9 2.3-13.6.4-2.3.7-4.7 1.3-6.9.2-1.2.2-1.4 0-1.8-.3-.6-.8-.8-1.5-.9m-3.6 6.4c-.8 1.5-1.7 3-2.5 4.5-.2.4-.5.6-1 .5-1-.2-2-.4-3-.5-.5-.1-.5-.4-.6-.8-.2-1.1-.4-1.4-1.4-1.5-2.1-.4-4.3-.7-6.4-1.1-1.2-.2-1.5-.1-2.1 1-.2.3-.4.4-.7.4-1.5-.2-3.1-.5-4.6-.8-.2 0-.3-.2-.5-.3-.8-1-1.5-2.1-1.8-3.4-.4-1.4.2-2.4 1.6-2.8.8-.2 1.6-.3 2.4-.3 2.2 0 4.3.5 6.5.9 4.3.7 8.6 1.5 12.9 2.2 1.7.3 1.9.8 1.2 2"/></g><g><path class="st0" d="M356.2 88.1c0 21.4-17.4 38.8-38.8 38.8s-38.8-17.4-38.8-38.8 17.4-38.8 38.8-38.8c21.4.1 38.8 17.4 38.8 38.8"/><path class="st1" d="M345.7 88.3l-5.1-9.5c-.1-.2-.3-.1-.4 0l-11.4 6.9c-.3.2-.3.3-.2.6 0 0 3.5 7.1 5.4 10.1.4.6 2.4.6 2.4.6 2.1 0 4.2-.3 6.2-1.2 1.1-.6 2.8-1.8 3.4-3.4.3-.6.8-1.8-.3-4.1M331.4 78.3c.5 0 .8-.3 1-.6 1.6-2.9 3.9-7 5.5-9.9.2-.3.3-.5.2-.7-.9.6-1.6 1.1-2.3 1.6-.4.3-.7.3-1-.1-.7-1.2-1.3-2.3-2-3.5 0 0-1.4-2-1.6-2.2-.7-.7-1.5-2.1-5.4-2.1h-13.6c1.5.9 2.6 1.9 3.4 3.3.6 1 1.1 2 1.7 3 1.6 2.9 3.3 5.7 4.9 8.6.2.3.2.6-.2.7l-3.7 1.9c.1.2.3.2.4.2 4.3-.2 8.5-.2 12.7-.2M314.4 99c0-.9 0-.9-.9-.9h-17.7c-1 0-2-.2-2.9-.5-1-.4-2-1-3-1.9.4.7.5 1.1.8 1.6.8 1.6 1.7 3.1 2.6 4.6l4.4 7.6c1.6 2 3.9 2.6 6.3 2.6 3.2.1 6.4 0 9.7 0 .5 0 .7-.2.7-.7-.1-4.1 0-8.2 0-12.4"/><path class="st1" d="M338.7 98c-4.2.1-8.3 0-12.5 0-.8 0-1-.2-1-1v-2.8c-.3.1-.2.1-.4.5-.3.6-.7 1.3-1 1.9-1.5 2.7-3.1 5.5-4.6 8.2-.1.2-.1.4 0 .7l5.5 9.7c.4.8.5.6.6.7v-3.2c0-.8.2-.9.9-.9h4.9c2.1 0 3.1-.5 3.1-.5 1.6-.8 2.7-1.7 3.5-3 1.2-2 2.3-4.1 3.5-6.2 1-1.9 2.1-3.7 3.1-5.6.1-.2.2-.3.3-.6-.3.2-.5.2-.8.4-2.5 1.5-3.2 1.6-5.1 1.7M293.6 96.7c1.9.5 3.4.5 5.4.5 1 0 1.2-.1 1.5-.6 1.4-2.4 2.9-4.9 4.3-7.3.5-.9.4-.6 1.1-.3.2.1.3.2.4.3.7.4 1.5.8 2.2 1.2.1-.3-.1-.4-.1-.6-.5-.8-1-1.7-1.4-2.5-1.4-2.6-2.9-5.2-4.3-7.8-.3-.5-.6-.7-1.2-.7h-11.1c-.4 0-.8-.2-1.3 0 1 .7 1.9 1.5 2.9 2.1.7.4.7.8.3 1.4-1.1 2-2.1 4.1-3.2 6.1-.9 1.7-1.1 3.4-.1 5 1.1 1.6 2.7 2.7 4.6 3.2M314.9 64.1c-1.4-1.8-3.4-3.2-6.6-3.3-.8.1-1.5.1-2.2.4-1.6.7-2.9 1.9-3.8 3.4-1.2 1.9-2.2 3.9-3.4 5.8-.2.4-.2.6.2.8l11.2 7c.2.2.4.1.6-.2.4-.7.8-1.4 1.2-2.2 1.2-2.2 2.3-4.4 3.5-6.7.5-1 .9-1.8.6-2.8-.3-.5-.5-1-1.3-2.2"/></g><g><path class="st1" d="M25.3 29.2v-9.1h-9.6v9.1h-1V11.7h1v7.4h9.6v-7.4h1v17.5zM40.4 13.7L36.8 23h7.1l-3.5-9.3zm5.9 15.5l-2-5.2h-7.9l-2 5.2h-1l7-18 7 18h-1.1zM62.3 28.3c-.9.7-2.1 1.1-3.5 1.1s-2.6-.4-3.5-1.1c-1-.8-1.5-2-1.5-3.4V11.7h1v13.1c0 1.1.4 2 1.2 2.6.7.6 1.7.9 2.8.9 1.1 0 2.1-.3 2.8-.9.8-.7 1.2-1.5 1.2-2.6V11.7h1v13.1c0 1.5-.5 2.6-1.5 3.5zM74.9 12.8v16.4h-1V12.8H70v-1.1h8.7v1.1zM108.1 15.1c-1.3-1.6-2.9-2.3-5-2.3h-4.8v15.5h4.8c1.8 0 3.3-.7 4.7-2 1.4-1.4 2.1-3.4 2.1-5.7 0-2.3-.6-4.1-1.8-5.5zm.8 11.5c-1.5 1.8-3.4 2.6-5.7 2.6h-5.8V11.7h5.8c2.3 0 4.3.9 5.7 2.6 1.4 1.6 2.1 3.7 2.1 6.1-.1 2.5-.8 4.5-2.1 6.2zM133 14.7c-1.5-1.5-3.4-2.3-5.8-2.3-2.3 0-4.2.8-5.7 2.3-1.5 1.5-2.3 3.4-2.3 5.7 0 2.3.7 4.2 2.2 5.7 1.5 1.5 3.4 2.3 5.7 2.3 2.3 0 4.3-.7 5.8-2.2 1.5-1.5 2.2-3.4 2.2-5.8.1-2.3-.6-4.2-2.1-5.7zm.7 12.2c-1.7 1.7-3.8 2.5-6.5 2.5-2.6 0-4.8-.8-6.5-2.5-1.7-1.7-2.5-3.8-2.5-6.5 0-2.6.8-4.8 2.5-6.5 1.7-1.7 3.8-2.5 6.5-2.5 2.6 0 4.8.8 6.5 2.5 1.7 1.7 2.5 3.8 2.5 6.5s-.8 4.9-2.5 6.5zM152.4 28.3c-.9.7-2.1 1.1-3.5 1.1s-2.6-.4-3.5-1.1c-1-.8-1.5-2-1.5-3.4V11.7h1v13.1c0 1.1.4 2 1.2 2.6.7.6 1.7.9 2.8.9 1.1 0 2.1-.3 2.8-.9.8-.7 1.2-1.5 1.2-2.6V11.7h1v13.1c0 1.5-.5 2.6-1.5 3.5zM169.4 21.2c-.8-.7-1.9-1.1-3.1-1.1h-4.5v8.1h4.5c1.2 0 2.3-.4 3.2-1.1.9-.7 1.3-1.7 1.3-2.9-.1-1.3-.5-2.3-1.4-3zm-1.8-7.6c-.7-.6-1.5-.9-2.4-.9h-3.4v6.4h3.5c.9 0 1.7-.3 2.3-.9.6-.6.9-1.4.9-2.3 0-.9-.3-1.7-.9-2.3zm2.5 14.2c-1.1.9-2.4 1.4-3.9 1.4h-5.5V11.7h4.3c1.4 0 2.4.4 3.2 1.1.8.8 1.3 1.8 1.3 3.1 0 1.5-.6 2.7-1.9 3.4 1.2.2 2.2.8 3 1.7.7.9 1.1 1.9 1.1 3.2 0 1.4-.5 2.7-1.6 3.6zM185.8 29.1c-.6.2-1.4.3-2.2.3-2.7 0-4.4-1.3-5.2-3.8l1-.3c.6 2.1 2 3.1 4.2 3.1 1.3 0 2.2-.3 3-.9.7-.6 1.1-1.6 1.1-2.8 0-1.2-.4-2.1-1.3-2.9-.2-.2-.6-.4-1.1-.7-.5-.3-1.1-.6-1.8-.9-1.4-.6-2.3-1.2-2.8-1.6-.8-.7-1.3-1.7-1.3-2.9s.4-2.2 1.3-2.9c.8-.7 1.9-1.1 3.1-1.1 2.1 0 3.5.8 4.4 2.3l-1 .4c-.3-.5-.7-.9-1.2-1.2-.6-.4-1.3-.5-2.2-.5-1 0-1.8.3-2.4.8-.7.6-1 1.3-1 2.2 0 .8.4 1.6 1.1 2.2.4.3 1.2.8 2.4 1.3.8.3 1.4.7 2 1 .6.3 1 .7 1.3 1 .9.9 1.4 2.1 1.4 3.5 0 2.2-1 3.7-2.8 4.4zM214.7 14.6c-.2-.4-.5-.8-.8-1-.3-.3-.7-.5-1.2-.6-.5-.1-.9-.2-1.5-.2h-3v6.7h3.3c1 0 1.9-.3 2.5-.9.6-.6 1-1.4 1-2.5 0-.6-.1-1.1-.3-1.5zm.9 14.6l-5.6-8.7h-1.9v8.7h-1V11.7h4c.7 0 1.3.1 1.9.3.6.2 1.1.5 1.5.8.4.4.8.8 1 1.4.3.5.4 1.2.4 1.9 0 .8-.1 1.4-.4 2-.2.6-.6 1-1 1.4-.4.4-.9.6-1.5.8-.6.2-1.2.3-1.9.3l5.6 8.7h-1.1zM223.7 29.2V11.7h8.4v1h-7.4v6.4h7.4v1.1h-7.4v8h7.4v1zM245.8 13.6c-.7-.6-1.5-.8-2.6-.8h-3.3v6.7h3.3c1.1 0 2-.3 2.7-.9.7-.6 1.1-1.5 1.1-2.5-.1-1.1-.5-1.9-1.2-2.5zm.7 5.7c-.9.8-2 1.2-3.4 1.2h-3.3v8.7h-1V11.7h4.3c1.3 0 2.5.4 3.4 1.2.9.8 1.4 1.8 1.4 3.2 0 1.3-.5 2.4-1.4 3.2zM257.7 13.7l-3.6 9.2h7.1l-3.5-9.2zm6 15.5l-2-5.2h-7.9l-2 5.2h-1l7-18 7 18h-1.1zM279.2 29.1c-.6.2-1.4.3-2.2.3-2.7 0-4.4-1.3-5.2-3.8l1-.3c.6 2.1 2 3.1 4.2 3.1 1.3 0 2.2-.3 3-.9.7-.6 1.1-1.6 1.1-2.8 0-1.2-.4-2.1-1.3-2.9-.2-.2-.6-.4-1.1-.7-.5-.3-1.1-.6-1.8-.9-1.4-.6-2.3-1.2-2.8-1.6-.8-.7-1.3-1.7-1.3-2.9s.4-2.2 1.3-2.9c.8-.7 1.9-1.1 3.1-1.1 2.1 0 3.5.8 4.4 2.3l-1 .4c-.3-.5-.7-.9-1.2-1.2-.6-.4-1.3-.5-2.2-.5-1 0-1.8.3-2.4.8-.7.6-1 1.3-1 2.2 0 .8.4 1.6 1.1 2.2.4.3 1.2.8 2.4 1.3.8.3 1.4.7 2 1 .6.3 1 .7 1.3 1 .9.9 1.4 2.1 1.4 3.5 0 2.2-1 3.7-2.8 4.4zM294.7 29.1c-.6.2-1.4.3-2.2.3-2.7 0-4.4-1.3-5.2-3.8l1-.3c.6 2.1 2 3.1 4.2 3.1 1.3 0 2.2-.3 3-.9.7-.6 1.1-1.6 1.1-2.8 0-1.2-.4-2.1-1.3-2.9-.2-.2-.6-.4-1.1-.7-.5-.3-1.1-.6-1.8-.9-1.4-.6-2.3-1.2-2.8-1.6-.8-.7-1.3-1.7-1.3-2.9s.4-2.2 1.3-2.9c.8-.7 1.9-1.1 3.1-1.1 2.1 0 3.5.8 4.4 2.3l-1 .4c-.3-.5-.7-.9-1.2-1.2-.6-.4-1.3-.5-2.2-.5-1 0-1.8.3-2.4.8-.7.6-1 1.3-1 2.2 0 .8.4 1.6 1.1 2.2.4.3 1.2.8 2.4 1.3.8.3 1.4.7 2 1 .6.3 1 .7 1.3 1 .9.9 1.4 2.1 1.4 3.5 0 2.2-.9 3.7-2.8 4.4zM311.8 13.7l-3.6 9.2h7.1l-3.5-9.2zm6 15.5l-2-5.2h-7.9l-2 5.2h-1l7-18 7 18h-1.1zM339.4 26.8c-1.7 1.8-3.9 2.7-6.7 2.7-2.6 0-4.8-.8-6.5-2.5-1.7-1.7-2.5-3.8-2.5-6.5 0-2.6.8-4.8 2.5-6.4 1.7-1.7 3.8-2.5 6.5-2.5 3.1 0 5.6 1.2 7.4 3.6l-.8.6c-1.6-2.2-3.8-3.2-6.6-3.2-2.3 0-4.2.8-5.7 2.3-1.5 1.5-2.3 3.4-2.3 5.7 0 2.3.7 4.2 2.2 5.7 1.5 1.5 3.4 2.2 5.7 2.2 2.5 0 4.4-.8 5.9-2.5 1.1-1.2 1.8-2.6 2-4.2h-5.8v-1h6.9c.2 2.4-.6 4.4-2.2 6zM348.6 29.2V11.7h8.4v1h-7.4v6.4h7.4v1.1h-7.4v8h7.4v1z"/></g></svg>